<svg width="17" height="18" viewBox="0 0 17 18" fill="none" xmlns="http://www.w3.org/2000/svg">
<path d="M1.7903 18C1.29797 18 0.876649 17.8239 0.526347 17.4717C0.176046 17.1195 0.000596766 16.6956 0 16.2V3.6C0 3.105 0.175449 2.6814 0.526347 2.3292C0.877246 1.977 1.29856 1.8006 1.7903 1.8H2.68545V0.900003C2.68545 0.645003 2.77138 0.431403 2.94325 0.259203C3.11512 0.0870032 3.32757 0.000603103 3.58059 3.10344e-06C3.83362 -0.000596896 4.04637 0.0858032 4.21884 0.259203C4.3913 0.432603 4.47694 0.646203 4.47574 0.900003V1.8H11.6369V0.900003C11.6369 0.645003 11.7229 0.431403 11.8947 0.259203C12.0666 0.0870032 12.2791 0.000603103 12.5321 3.10344e-06C12.7851 -0.000596896 12.9979 0.0858032 13.1703 0.259203C13.3428 0.432603 13.4284 0.646203 13.4272 0.900003V1.8H14.3224C14.8147 1.8 15.2363 1.9764 15.5872 2.3292C15.9381 2.682 16.1133 3.1056 16.1127 3.6V16.2C16.1127 16.695 15.9375 17.1189 15.5872 17.4717C15.2369 17.8245 14.8153 18.0006 14.3224 18H1.7903ZM1.7903 16.2H14.3224V7.2H1.7903V16.2ZM4.47574 10.8C4.22212 10.8 4.00967 10.7136 3.8384 10.5408C3.66713 10.368 3.58119 10.1544 3.58059 9.9C3.58 9.6456 3.66593 9.432 3.8384 9.2592C4.01086 9.0864 4.22331 9 4.47574 9H11.6369C11.8906 9 12.1033 9.0864 12.2752 9.2592C12.447 9.432 12.5327 9.6456 12.5321 9.9C12.5315 10.1544 12.4455 10.3683 12.2743 10.5417C12.103 10.7151 11.8906 10.8012 11.6369 10.8H4.47574ZM4.47574 14.4C4.22212 14.4 4.00967 14.3136 3.8384 14.1408C3.66713 13.968 3.58119 13.7544 3.58059 13.5C3.58 13.2456 3.66593 13.032 3.8384 12.8592C4.01086 12.6864 4.22331 12.6 4.47574 12.6H8.95149C9.20511 12.6 9.41786 12.6864 9.58973 12.8592C9.7616 13.032 9.84723 13.2456 9.84663 13.5C9.84604 13.7544 9.7601 13.9683 9.58883 14.1417C9.41756 14.3151 9.20511 14.4012 8.95149 14.4H4.47574Z" fill="white"/>
</svg>
