<svg width="43" height="45" viewBox="0 0 43 45" fill="none" xmlns="http://www.w3.org/2000/svg">
<path d="M41.5 1.14453L23.5 21.4216M15.5035 20.4316C9.9235 22.7027 5.46175 22.3138 1 20.4388C2.125 35.8088 8.884 41.7178 17.8952 44.0843C17.8952 44.0843 24.6835 38.9935 25.6623 26.9251C25.768 25.6178 25.8198 24.9666 25.5655 24.2294C25.309 23.4923 24.805 22.9651 23.7993 21.9083C22.1433 20.1716 21.3175 19.3033 20.3343 19.0838C19.351 18.8691 18.0685 19.3892 15.5035 20.4316Z" stroke="#F1C30C" stroke-width="1.5" stroke-linecap="round" stroke-linejoin="round"/>
<path d="M4.375 33.2205C4.375 33.2205 10 34.3751 15.625 29.771" stroke="#F1C30C" stroke-width="1.5" stroke-linecap="round" stroke-linejoin="round"/>
<path d="M13.375 11.2832C13.375 12.0741 13.0787 12.8325 12.5512 13.3917C12.0238 13.951 11.3084 14.2651 10.5625 14.2651C9.81658 14.2651 9.10121 13.951 8.57376 13.3917C8.04632 12.8325 7.75 12.0741 7.75 11.2832C7.75 10.4923 8.04632 9.73388 8.57376 9.17466C9.10121 8.61544 9.81658 8.30127 10.5625 8.30127C11.3084 8.30127 12.0238 8.61544 12.5512 9.17466C13.0787 9.73388 13.375 10.4923 13.375 11.2832Z" stroke="#F1C30C" stroke-width="1.5"/>
<path d="M19 3.53003V3.76858" stroke="#F1C30C" stroke-width="2" stroke-linecap="round" stroke-linejoin="round"/>
</svg>
