<svg width="45" height="45" viewBox="0 0 45 45" fill="none" xmlns="http://www.w3.org/2000/svg">
<path d="M22.4998 0.416748C19.5998 0.416748 16.7282 0.987951 14.0489 2.09774C11.3696 3.20753 8.93519 4.83418 6.88456 6.88481C2.74313 11.0262 0.416504 16.6432 0.416504 22.5001C0.416504 28.3569 2.74313 33.9739 6.88456 38.1154C8.93519 40.166 11.3696 41.7926 14.0489 42.9024C16.7282 44.0122 19.5998 44.5834 22.4998 44.5834C28.3567 44.5834 33.9737 42.2568 38.1151 38.1154C42.2565 33.9739 44.5832 28.3569 44.5832 22.5001C44.5832 19.6001 44.012 16.7284 42.9022 14.0492C41.7924 11.3699 40.1657 8.93543 38.1151 6.88481C36.0645 4.83418 33.63 3.20753 30.9508 2.09774C28.2715 0.987951 25.3999 0.416748 22.4998 0.416748ZM31.7748 31.7751L20.2915 24.7084V11.4584H23.604V22.9417L33.5415 28.9042L31.7748 31.7751Z" fill="#F1C30C"/>
</svg>
