<svg width="13" height="21" viewBox="0 0 13 21" fill="none" xmlns="http://www.w3.org/2000/svg">
<path d="M5.14438 21V18.4917C3.91622 18.2583 2.85629 17.8111 1.9646 17.15C1.07291 16.4889 0.418039 15.5556 0 14.35L2.57219 13.475C2.91979 14.4083 3.43562 15.1181 4.11968 15.6042C4.80374 16.0903 5.70146 16.3333 6.81283 16.3333C7.76292 16.3333 8.56841 16.1537 9.22931 15.7943C9.8902 15.435 10.2202 14.8758 10.2193 14.1167C10.2193 13.4361 9.96435 12.8967 9.45455 12.4985C8.94474 12.1003 7.76292 11.648 5.90909 11.1417C3.91622 10.6167 2.54902 9.98978 1.80749 9.261C1.06595 8.53222 0.695187 7.64244 0.695187 6.59167C0.695187 5.32778 1.18182 4.34583 2.15508 3.64583C3.12834 2.94583 4.12478 2.54722 5.14438 2.45V0H7.92513V2.45C9.08378 2.60556 10.0399 2.96061 10.7935 3.51517C11.5471 4.06972 12.0972 4.74522 12.4438 5.54167L9.87166 6.475C9.59358 5.85278 9.19964 5.38611 8.68984 5.075C8.18004 4.76389 7.48485 4.60833 6.60428 4.60833C5.58467 4.60833 4.80838 4.79811 4.2754 5.17767C3.74242 5.55722 3.47594 6.02855 3.47594 6.59167C3.47594 7.23333 3.82353 7.73889 4.51872 8.10833C5.2139 8.47778 6.4189 8.86667 8.13369 9.275C9.73262 9.66389 10.9436 10.2814 11.7667 11.1277C12.5898 11.9739 13.0009 12.9508 13 14.0583C13 15.4389 12.5134 16.4889 11.5401 17.2083C10.5668 17.9278 9.36185 18.375 7.92513 18.55V21H5.14438Z" fill="#F1C30C"/>
</svg>
