<svg width="28" height="28" viewBox="0 0 28 28" fill="none" xmlns="http://www.w3.org/2000/svg">
<path d="M27.856 25.3428L25.8339 19.6H23.6152L24.8473 25.2H3.15346L4.38563 19.6H2.16684L0.143302 25.3428C-0.369978 26.8044 0.539726 28 2.16684 28H25.8339C27.4611 28 28.3708 26.8044 27.856 25.3428ZM21.3964 7C21.3964 5.14348 20.6171 3.36301 19.2301 2.05025C17.8431 0.737498 15.9619 0 14.0004 0C12.0389 0 10.1577 0.737498 8.77065 2.05025C7.38364 3.36301 6.60442 5.14348 6.60442 7C6.60442 13.685 14.0004 21 14.0004 21C14.0004 21 21.3964 13.685 21.3964 7ZM10.0066 7.084C10.007 6.08172 10.4279 5.12063 11.1769 4.41204C11.9258 3.70346 12.9414 3.3054 14.0004 3.3054C15.0594 3.3054 16.0751 3.70358 16.8239 4.41233C17.5728 5.12109 17.9935 6.08237 17.9935 7.0847C17.9935 8.08703 17.5728 9.04831 16.8239 9.75707C16.0751 10.4658 15.0594 10.864 14.0004 10.864C12.9412 10.864 11.9253 10.4658 11.1763 9.75686C10.4273 9.04798 10.0066 8.08652 10.0066 7.084Z" fill="#F1C30C"/>
</svg>
