<svg width="37" height="49" viewBox="0 0 37 49" fill="none" xmlns="http://www.w3.org/2000/svg">
<path d="M12.375 16.3334H24.625C25.1665 16.3334 25.6858 16.1183 26.0687 15.7354C26.4516 15.3525 26.6667 14.8332 26.6667 14.2917C26.6667 13.7502 26.4516 13.2309 26.0687 12.848C25.6858 12.4651 25.1665 12.25 24.625 12.25H12.375C11.8335 12.25 11.3142 12.4651 10.9313 12.848C10.5484 13.2309 10.3333 13.7502 10.3333 14.2917C10.3333 14.8332 10.5484 15.3525 10.9313 15.7354C11.3142 16.1183 11.8335 16.3334 12.375 16.3334ZM13.3346 9.18754C13.3647 9.43653 13.4854 9.66573 13.6736 9.83142C13.8619 9.99711 14.1046 10.0877 14.3554 10.0859H22.5833C22.8329 10.0833 23.0733 9.99124 23.2606 9.82636C23.448 9.66147 23.5699 9.43477 23.6042 9.18754C24.0531 7.01733 24.8826 4.94369 26.0542 3.06254C26.1623 2.88005 26.207 2.66686 26.1811 2.4563C26.1553 2.24574 26.0604 2.04969 25.9112 1.89879C25.7881 1.73659 25.6193 1.61492 25.4264 1.54944C25.2336 1.48395 25.0256 1.47763 24.8292 1.53129L21.0317 3.16462C20.968 3.19536 20.8982 3.21133 20.8275 3.21133C20.7568 3.21133 20.687 3.19536 20.6233 3.16462C20.4967 3.11748 20.3939 3.02203 20.3375 2.89921L19.4392 0.632957C19.3607 0.44881 19.2299 0.291787 19.0629 0.181419C18.8959 0.0710504 18.7002 0.012207 18.5 0.012207C18.2998 0.012207 18.1041 0.0710504 17.9371 0.181419C17.7701 0.291787 17.6393 0.44881 17.5608 0.632957L16.6625 2.89921C16.6061 3.02203 16.5033 3.11748 16.3767 3.16462C16.313 3.19536 16.2432 3.21133 16.1725 3.21133C16.1018 3.21133 16.032 3.19536 15.9683 3.16462L12.1708 1.53129C11.9761 1.45253 11.7618 1.43575 11.5572 1.48325C11.3526 1.53075 11.1676 1.64021 11.0275 1.79671C10.8784 1.9476 10.7835 2.14366 10.7576 2.35422C10.7318 2.56477 10.7764 2.77797 10.8846 2.96046C12.0674 4.87278 12.8972 6.98193 13.3346 9.18754ZM25.5233 18.62C25.3127 18.4583 25.0539 18.372 24.7883 18.375H12.2117C11.9461 18.372 11.6873 18.4583 11.4767 18.62C6.27041 22.7034 0.45166 29.645 0.45166 35.77C0.45166 44.4063 5.26999 49 18.5 49C31.73 49 36.5483 44.4063 36.5483 35.77C36.5483 29.645 30.75 22.6013 25.5233 18.62ZM20.5417 41.0988C20.4226 41.1221 20.3152 41.1854 20.2372 41.2783C20.1592 41.3712 20.1153 41.488 20.1129 41.6092V42.3646C20.1129 42.7707 19.9516 43.1602 19.6644 43.4474C19.3773 43.7346 18.9878 43.8959 18.5817 43.8959C18.1755 43.8959 17.7861 43.7346 17.4989 43.4474C17.2117 43.1602 17.0504 42.7707 17.0504 42.3646V41.7113C17.0504 41.5759 16.9966 41.4461 16.9009 41.3504C16.8052 41.2547 16.6754 41.2009 16.54 41.2009H15.3354C14.9293 41.2009 14.5398 41.0396 14.2527 40.7524C13.9655 40.4652 13.8042 40.0757 13.8042 39.6696C13.8042 39.2635 13.9655 38.874 14.2527 38.5869C14.5398 38.2997 14.9293 38.1384 15.3354 38.1384H19.725C20.0509 38.1496 20.37 38.0441 20.625 37.8408C20.8799 37.6375 21.0538 37.3498 21.1154 37.0296C21.177 36.7094 21.1221 36.3777 20.9608 36.0944C20.7995 35.811 20.5422 35.5947 20.2354 35.4842L15.7846 33.708C14.8875 33.372 14.1243 32.753 13.6102 31.9447C13.0962 31.1364 12.8593 30.1826 12.9354 29.2277C13.0115 28.2729 13.3965 27.3687 14.0321 26.652C14.6677 25.9354 15.5194 25.4451 16.4583 25.2555C16.5773 25.2322 16.6848 25.1688 16.7628 25.0759C16.8408 24.9831 16.8847 24.8663 16.8871 24.745V23.9896C16.8871 23.5835 17.0484 23.194 17.3356 22.9069C17.6227 22.6197 18.0122 22.4584 18.4183 22.4584C18.8244 22.4584 19.2139 22.6197 19.5011 22.9069C19.7882 23.194 19.9496 23.5835 19.9496 23.9896V24.643C19.9496 24.7783 20.0034 24.9082 20.0991 25.0039C20.1948 25.0996 20.3246 25.1534 20.46 25.1534H21.6646C22.0707 25.1534 22.4602 25.3147 22.7473 25.6019C23.0345 25.889 23.1958 26.2785 23.1958 26.6846C23.1958 27.0907 23.0345 27.4802 22.7473 27.7674C22.4602 28.0545 22.0707 28.2159 21.6646 28.2159H17.3567C17.0308 28.2046 16.7116 28.3102 16.4567 28.5135C16.2018 28.7168 16.0278 29.0045 15.9663 29.3247C15.9047 29.6448 15.9595 29.9765 16.1209 30.2599C16.2822 30.5432 16.5395 30.7596 16.8462 30.87L21.2971 32.6463C22.1939 32.9891 22.9543 33.6152 23.4628 34.4295C23.9714 35.2438 24.2003 36.2019 24.1149 37.1581C24.0294 38.1144 23.6342 39.0166 22.9893 39.7279C22.3444 40.4391 21.485 40.9204 20.5417 41.0988Z" fill="#F1C30C"/>
</svg>
