<svg width="38" height="42" viewBox="0 0 38 42" fill="none" xmlns="http://www.w3.org/2000/svg">
<path fill-rule="evenodd" clip-rule="evenodd" d="M6.5 12.6667C6.5 9.35154 7.81696 6.17212 10.1612 3.82791C12.5054 1.48371 15.6848 0.166748 19 0.166748C22.3152 0.166748 25.4946 1.48371 27.8388 3.82791C30.183 6.17212 31.5 9.35154 31.5 12.6667H33.5833C34.6884 12.6667 35.7482 13.1057 36.5296 13.8871C37.311 14.6685 37.75 15.7283 37.75 16.8334V37.6668C37.75 38.7718 37.311 39.8316 36.5296 40.613C35.7482 41.3944 34.6884 41.8334 33.5833 41.8334H4.41667C3.3116 41.8334 2.25179 41.3944 1.47039 40.613C0.688987 39.8316 0.25 38.7718 0.25 37.6668V16.8334C0.25 15.7283 0.688987 14.6685 1.47039 13.8871C2.25179 13.1057 3.3116 12.6667 4.41667 12.6667H6.5ZM19 4.33342C21.2101 4.33342 23.3298 5.21139 24.8926 6.77419C26.4554 8.337 27.3333 10.4566 27.3333 12.6667H10.6667C10.6667 10.4566 11.5446 8.337 13.1074 6.77419C14.6702 5.21139 16.7899 4.33342 19 4.33342ZM23.1667 25.1667C23.1666 25.8981 22.9741 26.6166 22.6084 27.25C22.2427 27.8834 21.7167 28.4094 21.0833 28.7751V31.4167C21.0833 31.9693 20.8638 32.4992 20.4731 32.8899C20.0824 33.2806 19.5525 33.5001 19 33.5001C18.4475 33.5001 17.9176 33.2806 17.5269 32.8899C17.1362 32.4992 16.9167 31.9693 16.9167 31.4167V28.7751C16.1224 28.3164 15.5016 27.6085 15.1506 26.7612C14.7997 25.9138 14.7381 24.9743 14.9755 24.0883C15.2129 23.2024 15.736 22.4195 16.4636 21.8612C17.1913 21.3028 18.0828 21.0001 19 21.0001C20.1051 21.0001 21.1649 21.4391 21.9463 22.2205C22.7277 23.0019 23.1667 24.0617 23.1667 25.1667Z" fill="#F1C30C"/>
</svg>
