<svg width="32" height="21" viewBox="0 0 32 21" fill="none" xmlns="http://www.w3.org/2000/svg">
<path d="M21.9796 10.5443L30.1813 3.47951V17.5284L21.9796 10.5443ZM11.4111 11.7407L14.2913 14.2195C14.7433 14.6002 15.3326 14.8302 15.9767 14.8302H15.9993H16.0167C16.662 14.8302 17.2514 14.5989 17.7087 14.2155L17.7047 14.2181L20.5849 11.7394L29.3399 19.1941H2.66011L11.4111 11.7407ZM2.64811 1.80453H29.3559L16.5274 12.8512C16.3837 12.9654 16.2048 13.0271 16.0207 13.0257H16.002H15.9847C15.7999 13.027 15.6204 12.9649 15.4766 12.8499L15.478 12.8512L2.64811 1.80453ZM1.82008 3.47819L10.0204 10.543L1.82008 17.5231V3.47819ZM30.6213 0.25118C30.3013 0.0925402 29.9252 0 29.5266 0H2.47877C2.09247 0.0015161 1.71164 0.0905983 1.36539 0.260434L1.38006 0.253824C0.966528 0.456728 0.618287 0.769981 0.374488 1.15836C0.130689 1.54675 0.000999189 1.99486 0 2.45231L0 18.5437C0.000705901 19.195 0.261947 19.8193 0.726404 20.2798C1.19086 20.7403 1.8206 20.9993 2.47744 21H29.5226C30.1794 20.9993 30.8091 20.7403 31.2736 20.2798C31.7381 19.8193 31.9993 19.195 32 18.5437V2.45231C32 1.49122 31.4413 0.658357 30.6279 0.257791L30.6133 0.25118H30.6213Z" fill="#F1C30C"/>
</svg>
